<?xml version="1.0" encoding="UTF-8"?>
<!DOCTYPE svg PUBLIC "-//W3C//DTD SVG 1.1//EN" "http://www.w3.org/Graphics/SVG/1.1/DTD/svg11.dtd">
<!-- Creator: CorelDRAW -->
<svg xmlns="http://www.w3.org/2000/svg" xml:space="preserve" width="400px" height="317px" version="1.1" shape-rendering="geometricPrecision" text-rendering="geometricPrecision" image-rendering="optimizeQuality" fill-rule="evenodd" clip-rule="evenodd"
viewBox="0 0 400 316.73"
 xmlns:xlink="http://www.w3.org/1999/xlink"
 xmlns:xodm="http://www.corel.com/coreldraw/odm/2003">
 <g id="Katman_x0020_1">
  <metadata id="CorelCorpID_0Corel-Layer"/>
  <g id="_2119183726576">
   <path fill="#8D887E" d="M44.503 307.578l-0.378 -8.419c-0.044,-0.376 -0.089,-0.753 -0.134,-1.129 -0.057,-0.462 -0.113,-0.924 -0.169,-1.386 -0.423,-3.466 -0.846,-6.934 -1.267,-10.401l-6.772 0.418c-1.599,0.097 -3.205,-0.437 -4.414,-1.488 -0.605,-0.524 -1.103,-1.166 -1.474,-1.887 -0.369,-0.72 -0.602,-1.498 -0.696,-2.309l-0.403 -3.44c-0.115,-0.99 -0.02,-1.994 0.258,-2.935 0.277,-0.941 0.743,-1.834 1.348,-2.598 0.606,-0.763 1.365,-1.412 2.215,-1.881 0.85,-0.47 1.79,-0.76 2.764,-0.828 1.694,-0.118 3.389,-0.238 5.084,-0.36 -0.402,-3.356 -0.804,-6.711 -1.202,-10.067 -0.369,-3.094 -0.733,-6.189 -1.123,-9.281 -0.217,-2.435 -0.404,-4.807 -0.584,-7.116 -0.405,-5.187 -0.778,-10.051 -1.121,-14.614 -0.342,-4.561 -0.653,-8.82 -0.936,-12.81 -0.284,-3.99 -0.538,-7.711 -0.766,-11.194 -0.228,-3.483 -0.43,-6.728 -0.609,-9.798 -0.179,-3.07 -0.336,-5.965 -0.473,-8.751 -0.138,-2.786 -0.256,-5.464 -0.356,-8.085 -0.1,-2.621 -0.182,-5.186 -0.244,-7.732 -0.063,-2.545 -0.106,-5.071 -0.129,-7.594 -0.022,-2.523 -0.024,-5.044 -0.004,-7.566 0.019,-2.523 0.059,-5.048 0.119,-7.59 0.058,-2.541 0.138,-5.101 0.234,-7.713 0.097,-2.613 0.213,-5.28 0.347,-8.048 0.134,-2.77 0.288,-5.642 0.464,-8.685 0.176,-3.042 0.373,-6.255 0.597,-9.707 0.224,-3.451 0.475,-7.14 0.754,-11.098 0.281,-3.958 0.589,-8.185 0.927,-12.708 0.338,-4.523 0.707,-9.344 1.107,-14.494 0.207,-2.66 0.424,-5.408 0.673,-8.246 0.39,-3.093 0.754,-6.188 1.123,-9.281 0.398,-3.356 0.8,-6.711 1.202,-10.068 -1.695,-0.122 -3.39,-0.242 -5.084,-0.359 -1.949,-0.137 -3.768,-1.183 -4.98,-2.712 -0.606,-0.763 -1.071,-1.654 -1.348,-2.6 -0.279,-0.946 -0.372,-1.94 -0.257,-2.93l0.403 -3.441c0.19,-1.622 0.967,-3.153 2.174,-4.2 0.603,-0.524 1.307,-0.925 2.063,-1.178 0.756,-0.252 1.548,-0.354 2.347,-0.306l6.772 0.418 1.948 -21.335 22.707 -6.564 1.991 0 0.013 313.802 -2.004 -0.014c-5.542,-0.907 -16.821,-5.649 -22.707,-7.692z"/>
   <path fill="#BAB5A8" d="M69.214 1.446l276.207 -1.446c-0.017,0 -0.017,1.021 -0.017,3.043 0,26.101 -0.017,313.687 0.017,313.687l-276.207 -1.446 0 -313.838z"/>
   <path fill="#8D887E" d="M364.513 289.206c0,2.316 0,4.632 0,6.417 0,1.788 0,3.044 0,4.063 0,1.018 0,1.799 0,1.63 0,-0.028 0,-0.082 0,-0.051 -0.052,0.532 -0.105,0.979 -0.267,1.389 -0.169,0.428 -0.457,0.816 -0.804,1.136 -0.263,0.244 -0.561,0.448 -0.886,0.585 -0.3,0.126 -0.621,0.196 -0.626,0.192l-16.526 5.543 0 -304.595 16.525 5.541c0.097,0.028 0.511,0.128 0.881,0.321 0.404,0.21 0.755,0.531 1.036,0.902 0.223,0.295 0.4,0.622 0.505,0.969 0.098,0.33 0.13,0.678 0.162,1.11 0,0.182 0,0.279 0,0.771 0,0.591 0,1.751 0,3.267 0,1.515 0,3.386 0,5.649 0,2.264 0,4.921 0,7.935 0,3.017 0,6.392 0,10.099 0,3.703 0,7.738 0,12.068 0,4.331 0,8.958 0,13.841 0,4.888 0,10.034 0,15.394 0,5.353 0,10.918 0,16.649 0,5.732 0,11.628 0,17.639 0,6.018 0,12.15 0,18.345 0,6.188 0,12.438 0,18.696 0,6.261 0,12.529 0,18.753 0,6.23 0,12.416 0,18.503 0,6.08 0,12.063 0,17.897 0,5.835 0,11.522 0,17.011 0,5.494 0,10.79 0,15.845 0,5.048 0,9.855 0,14.372 0,4.518 0,8.746 0,12.68 0,3.938 0,7.581 0,10.773 0,3.188 0,5.925 0,8.661z"/>
   <path fill="#191919" d="M216.284 148.826c0.304,-0.006 0.609,-0.012 0.912,-0.035 0.286,-0.022 0.572,-0.059 0.855,-0.109 0.268,-0.047 0.532,-0.105 0.794,-0.177 0.246,-0.068 0.489,-0.149 0.727,-0.243 0.539,-0.214 1.052,-0.497 1.505,-0.861 0.451,-0.363 0.841,-0.804 1.139,-1.299 0.238,-0.397 0.417,-0.829 0.533,-1.277 0.172,-0.671 0.201,-1.38 0.121,-2.068 -0.045,-0.388 -0.126,-0.769 -0.23,-1.143 -0.098,-0.354 -0.218,-0.701 -0.362,-1.039 -0.137,-0.323 -0.295,-0.637 -0.455,-0.951 -0.568,-1.067 -1.138,-2.134 -1.706,-3.2 -0.568,-1.064 -1.136,-2.126 -1.702,-3.187 -0.567,-1.06 -1.132,-2.117 -1.698,-3.174 -0.564,-1.056 -1.129,-2.11 -1.692,-3.162 -0.563,-1.052 -1.125,-2.101 -1.687,-3.149 -0.561,-1.047 -1.122,-2.093 -1.681,-3.135 -0.56,-1.044 -1.119,-2.085 -1.677,-3.124 -0.965,-1.798 -1.927,-3.589 -2.886,-5.372 -0.955,-1.776 -1.906,-3.545 -2.854,-5.306 -0.945,-1.756 -1.886,-3.504 -2.822,-5.239 -0.933,-1.734 -1.861,-3.454 -2.788,-5.175 -0.504,-0.931 -1.007,-1.862 -1.508,-2.79 -0.5,-0.924 -0.998,-1.844 -1.494,-2.762 -0.495,-0.914 -0.987,-1.826 -1.478,-2.734 -0.491,-0.906 -0.979,-1.808 -1.466,-2.707 -0.485,-0.897 -0.968,-1.789 -1.449,-2.679 -0.482,-0.887 -0.96,-1.771 -1.437,-2.651 -0.477,-0.878 -0.951,-1.752 -1.423,-2.623 -0.472,-0.869 -0.941,-1.734 -1.409,-2.595 -0.467,-0.86 -0.933,-1.716 -1.395,-2.567 -0.463,-0.849 -0.922,-1.694 -1.382,-2.538 -0.173,-0.311 -0.346,-0.622 -0.531,-0.927 -0.185,-0.305 -0.382,-0.603 -0.588,-0.896 -0.205,-0.292 -0.42,-0.58 -0.643,-0.863 -0.224,-0.282 -0.458,-0.56 -0.7,-0.83 -0.244,-0.273 -0.496,-0.54 -0.757,-0.8 -0.261,-0.263 -0.532,-0.52 -0.812,-0.769 -0.283,-0.251 -0.576,-0.494 -0.869,-0.738 -0.27,-0.21 -0.539,-0.42 -0.818,-0.622 -0.274,-0.198 -0.556,-0.388 -0.845,-0.571 -0.284,-0.181 -0.575,-0.354 -0.871,-0.52 -0.293,-0.164 -0.593,-0.32 -0.898,-0.47 -0.302,-0.148 -0.61,-0.289 -0.924,-0.42 -0.313,-0.13 -0.632,-0.249 -0.951,-0.37 -0.353,-0.121 -0.706,-0.242 -1.065,-0.355 -0.353,-0.11 -0.713,-0.211 -1.075,-0.305 -0.357,-0.094 -0.718,-0.18 -1.082,-0.258 -0.36,-0.078 -0.724,-0.148 -1.088,-0.21 -0.362,-0.061 -0.726,-0.116 -1.092,-0.162 -0.362,-0.046 -0.726,-0.085 -1.092,-0.115 -0.364,-0.031 -0.727,-0.053 -1.092,-0.069 -0.363,-0.015 -0.725,-0.022 -1.089,-0.022 -0.73,0 -1.46,0.03 -2.186,0.092 -0.735,0.063 -1.464,0.157 -2.187,0.28 -0.735,0.125 -1.463,0.279 -2.174,0.471 -0.725,0.196 -1.432,0.43 -2.14,0.665 -0.321,0.121 -0.641,0.242 -0.955,0.374 -0.316,0.132 -0.625,0.273 -0.929,0.423 -0.306,0.151 -0.607,0.309 -0.901,0.474 -0.298,0.168 -0.59,0.344 -0.875,0.525 -0.29,0.186 -0.573,0.377 -0.847,0.578 -0.28,0.203 -0.55,0.415 -0.821,0.628 -0.289,0.242 -0.579,0.484 -0.859,0.734 -0.277,0.247 -0.544,0.503 -0.803,0.764 -0.258,0.259 -0.508,0.523 -0.749,0.794 -0.239,0.27 -0.47,0.545 -0.692,0.825 -0.221,0.281 -0.434,0.566 -0.638,0.857 -0.204,0.291 -0.399,0.586 -0.582,0.888 -0.184,0.302 -0.355,0.611 -0.526,0.919 -0.46,0.845 -0.92,1.69 -1.383,2.541 -0.463,0.851 -0.928,1.707 -1.396,2.568 -0.468,0.861 -0.938,1.727 -1.409,2.596 -0.472,0.87 -0.946,1.745 -1.422,2.624 -0.477,0.879 -0.955,1.763 -1.436,2.651 -0.481,0.889 -0.964,1.781 -1.449,2.677 -0.486,0.899 -0.974,1.8 -1.464,2.705 -0.491,0.908 -0.983,1.819 -1.478,2.733 -0.495,0.916 -0.992,1.835 -1.492,2.758 -0.501,0.926 -1.004,1.856 -1.507,2.785 -0.53,0.983 -1.059,1.965 -1.59,2.951 -0.532,0.988 -1.066,1.979 -1.602,2.972 -0.535,0.995 -1.073,1.994 -1.612,2.994 -0.539,1.002 -1.08,2.007 -1.622,3.015 -0.543,1.009 -1.088,2.021 -1.633,3.036 -0.547,1.016 -1.095,2.036 -1.644,3.057 -0.55,1.025 -1.102,2.051 -1.654,3.08 -0.976,1.818 -1.955,3.642 -2.937,5.474 -0.982,1.831 -1.966,3.669 -2.953,5.512 -0.987,1.844 -1.977,3.695 -2.968,5.551 -0.993,1.859 -1.988,3.724 -2.983,5.589 -0.119,0.234 -0.239,0.468 -0.348,0.708 -0.113,0.248 -0.214,0.501 -0.303,0.759 -0.094,0.268 -0.176,0.54 -0.243,0.815 -0.071,0.292 -0.124,0.587 -0.158,0.886 -0.079,0.72 -0.038,1.464 0.161,2.162 0.119,0.417 0.294,0.816 0.521,1.186 0.344,0.56 0.809,1.05 1.344,1.434 0.533,0.383 1.137,0.661 1.762,0.859 0.435,0.138 0.882,0.239 1.333,0.298 0.487,0.063 0.979,0.08 1.47,0.096l101.936 0z"/>
   <path fill="#191919" d="M132.007 220.337c-0.928,-1.722 -1.856,-3.444 -2.79,-5.178 -0.936,-1.737 -1.878,-3.485 -2.823,-5.242 -0.948,-1.762 -1.9,-3.531 -2.855,-5.309 -0.96,-1.784 -1.922,-3.575 -2.888,-5.373 -0.558,-1.039 -1.116,-2.081 -1.676,-3.124 -0.56,-1.043 -1.12,-2.089 -1.682,-3.136 -0.561,-1.047 -1.124,-2.097 -1.687,-3.149 -0.563,-1.052 -1.127,-2.105 -1.692,-3.161 -0.565,-1.056 -1.13,-2.114 -1.697,-3.173 -0.566,-1.061 -1.134,-2.123 -1.701,-3.187 -0.569,-1.065 -1.138,-2.132 -1.707,-3.199 -0.157,-0.312 -0.315,-0.625 -0.452,-0.947 -0.143,-0.336 -0.264,-0.682 -0.363,-1.034 -0.106,-0.376 -0.186,-0.758 -0.232,-1.147 -0.085,-0.722 -0.048,-1.467 0.147,-2.168 0.114,-0.412 0.282,-0.808 0.503,-1.175 0.355,-0.592 0.845,-1.108 1.411,-1.507 0.567,-0.4 1.21,-0.683 1.873,-0.876 0.204,-0.06 0.41,-0.111 0.618,-0.154 0.216,-0.045 0.433,-0.081 0.651,-0.111 0.225,-0.029 0.452,-0.052 0.679,-0.065 0.235,-0.013 0.47,-0.016 0.704,-0.019l101.936 0c0.497,0.017 0.995,0.035 1.487,0.1 0.446,0.059 0.887,0.156 1.318,0.293 0.632,0.2 1.241,0.484 1.778,0.874 0.526,0.381 0.983,0.864 1.323,1.416 0.246,0.398 0.431,0.833 0.55,1.284 0.177,0.669 0.21,1.376 0.134,2.063 -0.032,0.296 -0.085,0.589 -0.155,0.877 -0.066,0.275 -0.146,0.547 -0.238,0.815 -0.09,0.259 -0.19,0.514 -0.304,0.763 -0.11,0.243 -0.232,0.48 -0.354,0.717 -0.994,1.866 -1.99,3.731 -2.983,5.591 -0.992,1.856 -1.981,3.707 -2.969,5.552 -0.986,1.843 -1.971,3.681 -2.953,5.512 -0.982,1.832 -1.961,3.656 -2.937,5.474 -0.552,1.029 -1.103,2.055 -1.653,3.078 -0.549,1.022 -1.097,2.041 -1.643,3.057 -0.546,1.014 -1.089,2.026 -1.633,3.034 -0.542,1.008 -1.082,2.012 -1.621,3.014 -0.539,1 -1.076,1.997 -1.612,2.991 -0.534,0.994 -1.068,1.985 -1.599,2.971 -0.532,0.985 -1.061,1.967 -1.59,2.949 -0.504,0.931 -1.007,1.862 -1.508,2.79 -0.5,0.924 -0.998,1.844 -1.494,2.762 -0.495,0.915 -0.987,1.827 -1.478,2.734 -0.491,0.906 -0.979,1.809 -1.466,2.707 -0.485,0.896 -0.968,1.79 -1.449,2.679 -0.482,0.887 -0.96,1.771 -1.437,2.651 -0.477,0.878 -0.951,1.753 -1.423,2.623 -0.472,0.869 -0.941,1.734 -1.409,2.595 -0.467,0.86 -0.933,1.717 -1.395,2.567 -0.463,0.85 -0.922,1.694 -1.382,2.538 -0.173,0.311 -0.346,0.623 -0.531,0.928 -0.185,0.304 -0.382,0.602 -0.588,0.895 -0.205,0.293 -0.42,0.58 -0.643,0.863 -0.224,0.283 -0.458,0.56 -0.7,0.831 -0.244,0.272 -0.496,0.539 -0.757,0.8 -0.261,0.262 -0.532,0.519 -0.812,0.768 -0.283,0.252 -0.576,0.494 -0.869,0.738 -0.27,0.21 -0.539,0.42 -0.818,0.622 -0.274,0.198 -0.556,0.388 -0.845,0.571 -0.284,0.181 -0.575,0.354 -0.871,0.521 -0.293,0.164 -0.593,0.319 -0.898,0.469 -0.302,0.148 -0.61,0.289 -0.924,0.42 -0.313,0.13 -0.632,0.25 -0.951,0.37 -0.707,0.233 -1.415,0.467 -2.14,0.661 -0.71,0.191 -1.437,0.344 -2.172,0.468 -0.721,0.121 -1.45,0.215 -2.183,0.276 -0.725,0.061 -1.454,0.092 -2.182,0.091 -0.364,0 -0.728,-0.008 -1.091,-0.023 -0.366,-0.015 -0.73,-0.039 -1.094,-0.069 -0.366,-0.031 -0.731,-0.07 -1.094,-0.116 -0.367,-0.047 -0.731,-0.102 -1.094,-0.164 -0.365,-0.062 -0.728,-0.133 -1.089,-0.211 -0.364,-0.079 -0.725,-0.166 -1.083,-0.26 -0.362,-0.095 -0.721,-0.196 -1.075,-0.308 -0.358,-0.113 -0.712,-0.235 -1.065,-0.357 -0.321,-0.121 -0.641,-0.242 -0.955,-0.373 -0.316,-0.132 -0.625,-0.275 -0.929,-0.424 -0.306,-0.15 -0.607,-0.309 -0.901,-0.474 -0.298,-0.168 -0.59,-0.344 -0.875,-0.525 -0.29,-0.186 -0.573,-0.377 -0.847,-0.577 -0.28,-0.204 -0.55,-0.416 -0.821,-0.629 -0.289,-0.242 -0.579,-0.484 -0.859,-0.734 -0.277,-0.247 -0.544,-0.503 -0.803,-0.763 -0.258,-0.26 -0.508,-0.524 -0.749,-0.795 -0.239,-0.27 -0.47,-0.545 -0.692,-0.825 -0.221,-0.281 -0.434,-0.566 -0.638,-0.857 -0.204,-0.291 -0.399,-0.586 -0.582,-0.887 -0.184,-0.303 -0.355,-0.612 -0.526,-0.92 -0.46,-0.845 -0.92,-1.69 -1.383,-2.541 -0.463,-0.851 -0.928,-1.708 -1.396,-2.568 -0.468,-0.861 -0.938,-1.727 -1.409,-2.596 -0.472,-0.87 -0.946,-1.745 -1.422,-2.623 -0.477,-0.88 -0.955,-1.763 -1.436,-2.651 -0.481,-0.889 -0.964,-1.782 -1.449,-2.678 -0.486,-0.898 -0.974,-1.8 -1.464,-2.705 -0.491,-0.907 -0.983,-1.818 -1.478,-2.732 -0.495,-0.917 -0.992,-1.836 -1.492,-2.759 -0.501,-0.926 -1.004,-1.856 -1.507,-2.785z"/>
   <path fill="#191919" d="M192.101 127.062c-0.003,-0.005 -0.006,-0.009 -0.008,-0.015 -0.003,-0.004 -0.005,-0.009 -0.008,-0.014 -0.005,-0.009 -0.011,-0.02 -0.016,-0.029 -0.01,-0.019 -0.021,-0.039 -0.031,-0.058 -0.01,-0.019 -0.021,-0.038 -0.031,-0.058 -0.011,-0.019 -0.02,-0.039 -0.031,-0.058 -0.021,-0.039 -0.042,-0.077 -0.062,-0.116 -0.021,-0.039 -0.042,-0.077 -0.062,-0.116 -0.042,-0.077 -0.083,-0.155 -0.125,-0.232 -0.041,-0.078 -0.083,-0.155 -0.124,-0.233 -0.043,-0.081 -0.087,-0.161 -0.13,-0.242 -0.043,-0.081 -0.087,-0.161 -0.13,-0.242 -0.087,-0.161 -0.173,-0.323 -0.26,-0.484 -0.093,-0.172 -0.186,-0.345 -0.279,-0.518 -0.091,-0.172 -0.184,-0.345 -0.277,-0.517 -0.202,-0.377 -0.404,-0.753 -0.607,-1.13 -0.112,-0.208 -0.224,-0.417 -0.336,-0.626 -0.112,-0.208 -0.224,-0.417 -0.336,-0.625 -0.251,-0.467 -0.502,-0.933 -0.752,-1.4 -0.282,-0.525 -0.564,-1.05 -0.846,-1.575 -0.319,-0.591 -0.636,-1.181 -0.953,-1.772 -0.351,-0.651 -0.7,-1.301 -1.05,-1.95 -0.373,-0.696 -0.747,-1.389 -1.119,-2.082 -0.389,-0.723 -0.777,-1.444 -1.165,-2.164 -0.396,-0.736 -0.792,-1.47 -1.186,-2.203 -0.397,-0.737 -0.793,-1.473 -1.189,-2.208 -0.392,-0.727 -0.784,-1.454 -1.174,-2.179 -0.382,-0.709 -0.763,-1.415 -1.143,-2.121 -0.366,-0.678 -0.731,-1.355 -1.095,-2.03 -0.344,-0.637 -0.687,-1.274 -1.03,-1.909 -0.318,-0.589 -0.635,-1.178 -0.952,-1.765 -0.312,-0.577 -0.623,-1.153 -0.934,-1.728 -0.33,-0.612 -0.66,-1.222 -0.989,-1.831 -0.358,-0.663 -0.715,-1.325 -1.072,-1.985 -0.391,-0.724 -0.781,-1.445 -1.17,-2.164 -0.427,-0.79 -0.852,-1.577 -1.277,-2.362 -0.466,-0.862 -0.931,-1.722 -1.394,-2.578 -0.51,-0.941 -1.017,-1.878 -1.523,-2.811 0,0 0,-0.001 -0.001,-0.002 -0.072,-0.134 -0.16,-0.261 -0.261,-0.38 -0.045,-0.053 -0.093,-0.105 -0.143,-0.154 -0.05,-0.05 -0.103,-0.097 -0.158,-0.142 -0.102,-0.085 -0.213,-0.163 -0.329,-0.233 -0.115,-0.067 -0.236,-0.127 -0.361,-0.179 -0.124,-0.051 -0.254,-0.093 -0.386,-0.127 -0.131,-0.033 -0.265,-0.058 -0.401,-0.073 -0.135,-0.015 -0.271,-0.021 -0.408,-0.018 -0.136,0.004 -0.273,0.015 -0.407,0.037 -0.135,0.021 -0.268,0.052 -0.397,0.091 -0.131,0.04 -0.257,0.088 -0.379,0.145 -0.122,0.057 -0.239,0.123 -0.349,0.197 -0.11,0.073 -0.215,0.154 -0.311,0.243 -0.047,0.043 -0.093,0.088 -0.136,0.136 -0.044,0.046 -0.085,0.095 -0.124,0.144 -0.077,0.099 -0.146,0.203 -0.205,0.311 -1.987,3.633 -3.987,7.34 -6.02,11.101 -2.032,3.759 -4.098,7.572 -6.184,11.43 -2.086,3.858 -4.192,7.762 -6.315,11.7 -2.124,3.938 -4.267,7.917 -6.413,11.907 -0.183,0.333 -0.255,0.724 -0.19,1.107 0.066,0.382 0.278,0.743 0.593,0.988 0.314,0.243 0.72,0.364 1.115,0.34 0.395,-0.024 0.767,-0.182 1.057,-0.429 0.007,-0.006 0.014,-0.012 0.021,-0.017 0.007,-0.006 0.013,-0.012 0.021,-0.018 0.013,-0.011 0.027,-0.022 0.04,-0.034 0.014,-0.011 0.027,-0.023 0.041,-0.034 0.013,-0.011 0.027,-0.023 0.041,-0.034 0.028,-0.023 0.055,-0.046 0.082,-0.069 0.027,-0.023 0.054,-0.046 0.082,-0.068 0.054,-0.046 0.108,-0.092 0.163,-0.137 0.055,-0.046 0.109,-0.092 0.164,-0.138 0.054,-0.045 0.109,-0.091 0.163,-0.136 0.055,-0.046 0.109,-0.092 0.164,-0.137 0.109,-0.092 0.218,-0.183 0.326,-0.274 0.219,-0.183 0.437,-0.365 0.655,-0.548 0.218,-0.182 0.436,-0.365 0.654,-0.548 0.238,-0.2 0.477,-0.399 0.715,-0.599 0.239,-0.199 0.477,-0.399 0.715,-0.599 0.239,-0.199 0.477,-0.398 0.715,-0.598 0.238,-0.2 0.476,-0.399 0.714,-0.599 0.521,-0.437 1.043,-0.874 1.564,-1.31 0.522,-0.437 1.043,-0.873 1.564,-1.309 0.57,-0.478 1.14,-0.955 1.711,-1.433 0.57,-0.477 1.14,-0.954 1.709,-1.431 0.625,-0.522 1.247,-1.044 1.871,-1.565 0.623,-0.522 1.245,-1.043 1.868,-1.564 0.68,-0.569 1.361,-1.138 2.04,-1.707 0.68,-0.568 1.36,-1.137 2.038,-1.705 1.484,-1.24 2.964,-2.478 4.442,-3.714 0.122,-0.102 0.288,-0.16 0.452,-0.16 0.165,0 0.33,0.059 0.452,0.161 1.307,1.093 2.614,2.19 3.923,3.288 1.261,1.057 2.523,2.116 3.786,3.176 1.173,0.984 2.348,1.97 3.524,2.957 1.058,0.887 2.117,1.776 3.177,2.665 0.949,0.797 1.898,1.593 2.848,2.392 0.852,0.714 1.704,1.43 2.558,2.146 0.768,0.646 1.537,1.291 2.305,1.937 0.697,0.585 1.395,1.171 2.092,1.756 0.291,0.249 0.663,0.406 1.058,0.43 0.394,0.025 0.802,-0.095 1.116,-0.34 0.314,-0.244 0.527,-0.603 0.593,-0.986 0.067,-0.383 -0.006,-0.775 -0.188,-1.107z"/>
   <path fill="#191919" d="M140.122 186.553c-0.29,-0.248 -0.662,-0.405 -1.057,-0.429 -0.395,-0.024 -0.801,0.096 -1.115,0.34 -0.315,0.243 -0.527,0.605 -0.593,0.988 -0.065,0.382 0.007,0.773 0.19,1.107 2.146,3.99 4.289,7.969 6.413,11.906 2.123,3.938 4.229,7.842 6.315,11.7 2.086,3.859 4.152,7.671 6.184,11.431 2.033,3.759 4.033,7.467 6.02,11.1 0.059,0.108 0.128,0.212 0.205,0.311 0.039,0.05 0.08,0.098 0.124,0.145 0.043,0.046 0.089,0.092 0.136,0.136 0.096,0.088 0.201,0.169 0.311,0.243 0.11,0.073 0.227,0.138 0.349,0.195 0.122,0.057 0.248,0.106 0.379,0.146 0.129,0.04 0.262,0.07 0.397,0.091 0.134,0.022 0.271,0.034 0.407,0.037 0.137,0.003 0.273,-0.003 0.408,-0.018 0.136,-0.015 0.27,-0.04 0.401,-0.073 0.132,-0.033 0.262,-0.076 0.386,-0.127 0.125,-0.051 0.246,-0.111 0.361,-0.18 0.116,-0.068 0.227,-0.146 0.329,-0.231 0.055,-0.046 0.108,-0.094 0.158,-0.143 0.05,-0.049 0.098,-0.1 0.143,-0.154 0.101,-0.119 0.189,-0.246 0.261,-0.38 0.001,-0.001 0.001,-0.002 0.001,-0.002 0.506,-0.933 1.013,-1.87 1.523,-2.811 0.463,-0.856 0.928,-1.716 1.394,-2.578 0.425,-0.785 0.85,-1.572 1.277,-2.362 0.389,-0.719 0.779,-1.44 1.17,-2.163 0.357,-0.661 0.714,-1.322 1.072,-1.985 0.329,-0.609 0.659,-1.22 0.989,-1.832 0.311,-0.575 0.622,-1.151 0.934,-1.728 0.317,-0.587 0.634,-1.176 0.952,-1.766 0.343,-0.634 0.686,-1.27 1.03,-1.908 0.364,-0.676 0.729,-1.352 1.095,-2.03 0.38,-0.705 0.761,-1.412 1.143,-2.12 0.39,-0.726 0.782,-1.452 1.174,-2.18 0.396,-0.735 0.792,-1.47 1.189,-2.208 0.394,-0.733 0.79,-1.467 1.186,-2.202 0.388,-0.72 0.776,-1.442 1.165,-2.164 0.372,-0.693 0.746,-1.387 1.119,-2.082 0.35,-0.65 0.699,-1.3 1.05,-1.951 0.317,-0.59 0.634,-1.181 0.953,-1.773 0.282,-0.523 0.564,-1.049 0.846,-1.574 0.25,-0.467 0.501,-0.933 0.752,-1.4 0.112,-0.208 0.224,-0.417 0.336,-0.625 0.112,-0.208 0.224,-0.418 0.336,-0.626 0.203,-0.376 0.405,-0.753 0.607,-1.129 0.093,-0.173 0.186,-0.346 0.277,-0.518 0.093,-0.172 0.186,-0.345 0.279,-0.518 0.087,-0.161 0.173,-0.322 0.26,-0.484 0.043,-0.08 0.087,-0.161 0.13,-0.242 0.043,-0.081 0.087,-0.161 0.13,-0.242 0.041,-0.077 0.083,-0.155 0.124,-0.232 0.042,-0.078 0.083,-0.155 0.125,-0.233 0.02,-0.038 0.041,-0.077 0.062,-0.116 0.02,-0.038 0.041,-0.077 0.062,-0.116 0.011,-0.019 0.02,-0.038 0.031,-0.057 0.01,-0.02 0.021,-0.04 0.031,-0.059 0.01,-0.019 0.021,-0.039 0.031,-0.058 0.005,-0.01 0.011,-0.019 0.016,-0.029 0.003,-0.004 0.005,-0.01 0.008,-0.014 0.002,-0.005 0.005,-0.01 0.008,-0.015 0.182,-0.332 0.255,-0.724 0.188,-1.106 -0.066,-0.383 -0.279,-0.743 -0.593,-0.987 -0.314,-0.245 -0.722,-0.364 -1.116,-0.34 -0.395,0.025 -0.767,0.181 -1.058,0.43 -0.697,0.586 -1.395,1.171 -2.092,1.756 -0.768,0.646 -1.537,1.291 -2.305,1.936 -0.854,0.717 -1.706,1.433 -2.558,2.148 -0.95,0.797 -1.899,1.594 -2.848,2.391 -1.06,0.889 -2.119,1.777 -3.177,2.665 -1.176,0.987 -2.351,1.973 -3.524,2.958 -1.263,1.06 -2.525,2.118 -3.786,3.175 -1.309,1.098 -2.616,2.195 -3.923,3.288 -0.122,0.102 -0.287,0.16 -0.452,0.161 -0.164,0 -0.33,-0.058 -0.452,-0.16 -1.478,-1.235 -2.958,-2.474 -4.442,-3.714 -0.678,-0.568 -1.358,-1.136 -2.038,-1.705 -0.679,-0.568 -1.36,-1.137 -2.04,-1.707 -0.623,-0.521 -1.245,-1.042 -1.868,-1.564 -0.624,-0.521 -1.246,-1.042 -1.871,-1.564 -0.569,-0.477 -1.139,-0.955 -1.709,-1.432 -0.571,-0.477 -1.141,-0.955 -1.711,-1.433 -0.521,-0.436 -1.042,-0.872 -1.564,-1.309 -0.521,-0.437 -1.043,-0.873 -1.564,-1.31 -0.238,-0.2 -0.476,-0.399 -0.714,-0.598 -0.238,-0.2 -0.476,-0.4 -0.715,-0.599 -0.238,-0.2 -0.476,-0.4 -0.715,-0.599 -0.238,-0.2 -0.477,-0.4 -0.715,-0.599 -0.218,-0.183 -0.436,-0.365 -0.654,-0.548 -0.218,-0.182 -0.436,-0.365 -0.655,-0.548 -0.108,-0.091 -0.217,-0.182 -0.326,-0.273 -0.055,-0.046 -0.109,-0.092 -0.164,-0.138 -0.054,-0.045 -0.109,-0.09 -0.163,-0.136 -0.055,-0.046 -0.109,-0.092 -0.164,-0.138 -0.055,-0.045 -0.109,-0.09 -0.163,-0.136 -0.028,-0.024 -0.055,-0.046 -0.082,-0.069 -0.027,-0.023 -0.054,-0.045 -0.082,-0.068 -0.014,-0.012 -0.028,-0.023 -0.041,-0.034 -0.014,-0.012 -0.027,-0.023 -0.041,-0.035 -0.013,-0.011 -0.027,-0.022 -0.04,-0.034 -0.008,-0.005 -0.014,-0.012 -0.021,-0.018 -0.007,-0.005 -0.014,-0.011 -0.021,-0.016z"/>
   <line fill="none" stroke="black" stroke-width="0.945" stroke-linejoin="round" stroke-miterlimit="22.9256" x1="38.165" y1="249.585" x2="38.115" y2= "249.589" />
   <path fill="#BAB5A8" d="M368.153 283.872c-0.003,-0.004 -0.328,-0.04 -0.652,-0.015 -0.361,0.028 -0.719,0.13 -1.05,0.284 -0.352,0.164 -0.673,0.385 -0.951,0.657 -0.328,0.319 -0.595,0.706 -0.75,1.129 -0.143,0.391 -0.19,0.811 -0.237,1.231l0 -258.691c0.033,0.353 0.066,0.706 0.169,1.042 0.11,0.363 0.3,0.706 0.539,1.005 0.244,0.305 0.536,0.562 0.868,0.776 0.372,0.239 0.794,0.423 1.226,0.453 0.168,0.012 0.337,0.001 0.511,0.016l9.601 0.035c0.792,0.033 1.908,0.056 2.958,0.344 0.824,0.226 1.606,0.615 2.103,0.85l13.907 6.991c0.458,0.283 0.855,0.487 1.209,0.749 0.607,0.45 1.09,1.07 1.478,1.736 0.305,0.525 0.55,1.078 0.693,1.656 0.138,0.556 0.182,1.134 0.225,1.778 0,0.142 0,0.217 0,0.601 0,0.461 0,1.366 0,2.549 0,1.182 0,2.641 0,4.407 0,1.766 0,3.839 0,6.19 0,2.354 0,4.988 0,7.879 0,2.889 0,6.036 0,9.414 0,3.381 0,6.994 0,10.799 0,3.807 0,7.808 0,12.009 0,4.196 0,8.592 0,12.988 0,4.546 0,9.092 0,13.762 0,4.674 0,9.473 0,14.312 0,4.832 0,9.704 0,14.585 0,4.883 0,9.774 0,14.63 0,4.861 0,9.687 0,14.435 0,4.743 0,9.41 0,13.962 0,23.358 0,46.716 0,70.074 0,0.805 0,1.404 0,1.272 0,-0.022 0,-0.064 0,-0.04 -0.071,0.806 -0.142,1.548 -0.367,2.244 -0.234,0.721 -0.633,1.395 -1.115,2.001 -0.374,0.47 -0.797,0.9 -1.294,1.217 -0.245,0.157 -0.509,0.286 -0.832,0.476l-13.904 6.972c-0.723,0.324 -1.732,0.803 -2.799,1.014 -0.838,0.166 -1.712,0.168 -2.261,0.18l-9.275 0.042z"/>
   <path fill="#BAB5A8" d="M44.443 13.479c0.021,-0.252 0.035,-0.44 0.043,-0.599 0.007,-0.136 0.01,-0.25 0.013,-0.352 0.002,-0.129 0.003,-0.238 0.003,-0.347l0 -4.134 -24.538 11.765c-0.068,0.04 -0.142,0.083 -0.198,0.142 -0.072,0.075 -0.115,0.175 -0.158,0.276l-0.231 0.35c-2.513,8.428 -5.025,16.856 -6.916,25.431 -0.703,3.187 -1.32,6.394 -1.933,9.581 0.004,-0.023 -0.157,0.792 -0.428,2.166 -0.271,1.375 -0.649,3.294 -1.027,5.22 -3.063,15.606 -5.323,31.367 -6.826,47.198 -1.503,15.831 -2.247,31.734 -2.247,47.636 0,15.902 0.744,31.804 2.247,47.636 1.503,15.831 3.763,31.592 6.826,47.198 0.378,1.925 0.755,3.839 1.026,5.215 0.136,0.688 0.245,1.242 0.319,1.617 0.074,0.376 0.114,0.575 0.198,0.555 1.042,4.643 2.001,9.306 3.114,13.931 1.707,7.087 3.779,14.084 5.864,21.255 0.045,0.254 0.077,0.333 0.127,0.398 0.063,0.082 0.156,0.14 0.243,0.195l24.538 11.766 0 -4.136c-0.001,-0.123 -0.001,-0.246 -0.005,-0.398 -0.002,-0.114 -0.006,-0.245 -0.016,-0.407 -0.01,-0.166 -0.026,-0.367 -0.049,-0.627 -0.019,-0.231 -0.044,-0.51 -0.076,-0.815 -0.029,-0.277 -0.063,-0.575 -0.098,-0.878 -0.043,-0.381 -0.087,-0.769 -0.133,-1.158 -0.044,-0.376 -0.089,-0.752 -0.135,-1.129 -0.055,-0.462 -0.112,-0.924 -0.168,-1.386 -0.423,-3.467 -0.846,-6.934 -1.267,-10.401l-6.772 0.418c-1.598,0.097 -3.205,-0.437 -4.414,-1.487 -0.605,-0.526 -1.104,-1.167 -1.474,-1.887 -0.369,-0.721 -0.601,-1.499 -0.696,-2.31l-0.403 -3.44c-0.115,-0.99 -0.019,-1.994 0.258,-2.935 0.277,-0.942 0.742,-1.834 1.348,-2.598 0.606,-0.763 1.364,-1.413 2.215,-1.882 0.85,-0.469 1.789,-0.759 2.764,-0.827 1.694,-0.119 3.389,-0.238 5.084,-0.36 -0.402,-3.356 -0.804,-6.711 -1.202,-10.067 -0.368,-3.094 -0.733,-6.189 -1.123,-9.281 -0.217,-2.435 -0.404,-4.807 -0.584,-7.116 -0.405,-5.186 -0.779,-10.052 -1.121,-14.613 -0.342,-4.562 -0.654,-8.821 -0.937,-12.811 -0.283,-3.99 -0.537,-7.711 -0.765,-11.194 -0.229,-3.483 -0.43,-6.728 -0.609,-9.797 -0.179,-3.071 -0.336,-5.966 -0.474,-8.752 -0.137,-2.786 -0.255,-5.464 -0.355,-8.085 -0.101,-2.622 -0.182,-5.186 -0.245,-7.732 -0.062,-2.545 -0.105,-5.071 -0.128,-7.594 -0.022,-2.523 -0.023,-5.044 -0.004,-7.566 0.019,-2.523 0.059,-5.048 0.119,-7.59 0.058,-2.542 0.137,-5.101 0.235,-7.714 0.096,-2.612 0.212,-5.279 0.346,-8.047 0.135,-2.77 0.288,-5.642 0.464,-8.684 0.176,-3.043 0.373,-6.256 0.597,-9.708 0.225,-3.451 0.476,-7.141 0.755,-11.098 0.28,-3.958 0.588,-8.184 0.926,-12.708 0.338,-4.523 0.707,-9.344 1.108,-14.494 0.206,-2.66 0.423,-5.408 0.672,-8.246 0.39,-3.093 0.755,-6.188 1.123,-9.282 0.398,-3.356 0.8,-6.711 1.202,-10.066 -1.695,-0.122 -3.39,-0.243 -5.084,-0.36 -1.949,-0.137 -3.769,-1.184 -4.98,-2.712 -0.606,-0.763 -1.07,-1.654 -1.348,-2.6 -0.278,-0.946 -0.372,-1.941 -0.257,-2.93l0.403 -3.441c0.19,-1.621 0.967,-3.153 2.174,-4.2 0.604,-0.523 1.307,-0.925 2.063,-1.177 0.756,-0.253 1.549,-0.355 2.347,-0.307l6.772 0.418c0.631,-5.197 1.466,-10.657 1.888,-15.902z"/>
   <path fill="#191919" d="M291.218 124.978l-13.267 0c-0.222,0.006 -0.444,0.013 -0.666,0.034 -0.227,0.021 -0.454,0.058 -0.678,0.104 -0.231,0.048 -0.46,0.108 -0.683,0.18 -0.23,0.074 -0.456,0.16 -0.677,0.259 -0.227,0.101 -0.449,0.215 -0.662,0.34 -0.219,0.13 -0.431,0.272 -0.634,0.426 -0.208,0.156 -0.407,0.326 -0.594,0.506 -0.322,0.311 -0.614,0.653 -0.868,1.021 -0.253,0.368 -0.467,0.761 -0.642,1.171 -0.177,0.408 -0.314,0.834 -0.395,1.27 -0.082,0.435 -0.108,0.879 -0.134,1.323 0,17.35 0,35.05 0,52.401 0.024,0.426 0.048,0.851 0.123,1.269 0.075,0.417 0.202,0.827 0.363,1.222 0.176,0.431 0.394,0.843 0.656,1.228 0.216,0.321 0.463,0.623 0.734,0.903 0.197,0.203 0.407,0.392 0.628,0.569 0.214,0.169 0.438,0.327 0.67,0.468 0.224,0.137 0.457,0.261 0.695,0.371 0.23,0.105 0.466,0.197 0.706,0.275 0.231,0.076 0.466,0.138 0.704,0.188 0.227,0.048 0.457,0.085 0.688,0.106 0.221,0.021 0.444,0.028 0.666,0.034l13.267 0c0.222,-0.006 0.444,-0.013 0.665,-0.034 0.228,-0.021 0.456,-0.057 0.679,-0.104 0.231,-0.048 0.459,-0.108 0.683,-0.18 0.231,-0.074 0.458,-0.16 0.677,-0.259 0.227,-0.101 0.448,-0.215 0.663,-0.341 0.218,-0.129 0.43,-0.271 0.633,-0.424 0.209,-0.157 0.407,-0.327 0.594,-0.507 0.323,-0.31 0.615,-0.653 0.868,-1.022 0.252,-0.368 0.467,-0.759 0.643,-1.169 0.176,-0.409 0.314,-0.836 0.395,-1.271 0.082,-0.434 0.107,-0.878 0.132,-1.322 0,-17.351 0,-35.051 0,-52.401 -0.022,-0.427 -0.046,-0.852 -0.122,-1.27 -0.074,-0.417 -0.201,-0.827 -0.363,-1.222 -0.175,-0.43 -0.395,-0.842 -0.655,-1.227 -0.217,-0.322 -0.463,-0.624 -0.734,-0.903 -0.197,-0.203 -0.408,-0.394 -0.629,-0.569 -0.213,-0.17 -0.437,-0.327 -0.671,-0.469 -0.223,-0.137 -0.456,-0.261 -0.695,-0.37 -0.229,-0.106 -0.464,-0.198 -0.704,-0.277 -0.231,-0.074 -0.466,-0.137 -0.704,-0.187 -0.227,-0.048 -0.458,-0.084 -0.688,-0.106 -0.223,-0.021 -0.445,-0.028 -0.667,-0.034z"/>
  </g>
 </g>
</svg>
