<?xml version="1.0" encoding="UTF-8"?>
<!DOCTYPE svg PUBLIC "-//W3C//DTD SVG 1.1//EN" "http://www.w3.org/Graphics/SVG/1.1/DTD/svg11.dtd">
<!-- Creator: CorelDRAW -->
<svg xmlns="http://www.w3.org/2000/svg" xml:space="preserve" width="132.292mm" height="132.292mm" version="1.1" shape-rendering="geometricPrecision" text-rendering="geometricPrecision" image-rendering="optimizeQuality" fill-rule="evenodd" clip-rule="evenodd"
viewBox="0 0 13229.16 13229.16"
 xmlns:xlink="http://www.w3.org/1999/xlink"
 xmlns:xodm="http://www.corel.com/coreldraw/odm/2003">
 <g id="Katman_x0020_1">
  <metadata id="CorelCorpID_0Corel-Layer"/>
  <g id="_2083482672224">
   <path fill="#6E6E6E" d="M2869.74 7858.24c0,1337.89 713.74,2574.16 1872.38,3243.08 1158.64,668.95 2586.16,668.95 3744.79,0 1158.65,-668.92 1872.39,-1905.19 1872.39,-3243.08l0 -2487.31c0,-2068.19 -1676.59,-3744.79 -3744.76,-3744.79 -2068.19,-0.02 -3744.8,1676.58 -3744.8,3744.77l0 2487.33zm389.94 -2487.31l0 2487.31c0,1852.83 1502,3354.86 3354.83,3354.86 1852.81,0 3354.83,-1502 3354.84,-3354.86l0 -2487.31c0,-1852.83 -1501.99,-3354.86 -3354.81,-3354.86 -1852.83,0 -3354.86,1502 -3354.86,3354.86z"/>
   <path fill="#6E6E6E" stroke="black" stroke-width="26.46" stroke-linejoin="bevel" stroke-miterlimit="22.9256" d="M3259.68 5370.93l0 2487.31c0,1852.83 1502,3354.86 3354.83,3354.86 1852.81,0 3354.83,-1502 3354.84,-3354.86l0 -2487.31c0,-1852.83 -1501.99,-3354.86 -3354.81,-3354.86 -1852.83,0 -3354.86,1502 -3354.86,3354.86zm4757.02 3861.82c0,-86.04 -69.74,-155.81 -155.79,-155.81 -86.05,0 -155.8,69.77 -155.8,155.81 0,55.66 29.69,107.09 77.9,134.92 48.22,27.83 107.59,27.83 155.8,0 48.2,-27.83 77.89,-79.26 77.89,-134.92zm-2492.77 0c0,-86.04 -69.76,-155.81 -155.8,-155.81 -86.06,0 -155.8,69.77 -155.8,155.81 0,55.66 29.69,107.09 77.89,134.92 48.22,27.83 107.59,27.83 155.81,0 48.2,-27.83 77.9,-79.26 77.9,-134.92z"/>
   <path fill="#444443" stroke="black" stroke-width="52.92" stroke-linejoin="bevel" stroke-miterlimit="22.9256" d="M9846.2 5370.92c0,-1787.23 -1448.85,-3236.08 -3236.08,-3236.08 -1787.23,0 -3236.07,1448.83 -3227.18,3236.08l0 2487.33c-8.91,1156.14 607.89,2224.46 1609.13,2802.53 1001.25,578.07 2234.84,578.07 3236.09,0 1001.24,-578.07 1618.04,-1646.39 1618.04,-2802.53l0 -2487.33z"/>
   <path fill="#666636" fill-rule="nonzero" d="M5512.89 5197.27l0 -490.54 0 0 74.77 0 0 0 394.7 0c72.13,0 120.4,17.01 144.55,51.06 23.71,33.62 35.57,100.59 35.57,201.19l0 3.62c0.28,93.76 -13.12,156.26 -40.18,187.65 -27.21,31.39 -81.34,47.02 -162.4,47.02l-372.24 0 0 0 -74.77 0zm149.84 -125.57l0 0 262.43 0c35.72,0 59.15,-7.39 70.46,-22.32 11.3,-14.79 17.02,-45.49 17.02,-92.08 0,-50.93 -5.45,-84.54 -16.33,-100.73 -10.88,-16.19 -33.48,-24.28 -67.95,-24.28l-265.63 0 0 0 0 239.41zm597.83 125.57l0 0 0 -490.54 0 0 544.12 0 0 0 0 56.5 0 56.51 0 0 -394.28 0 0 0 0 67.8 0 0 372.51 0 0 53.16 0 53.16 0 0 -372.51 0 0 0 0 90.4 0 0 394.28 0 0 0 0 56.51 0 56.5 0 0 -544.12 0zm1082.52 -328.98l0 0c0,-24.42 -9.76,-39.35 -29.3,-45.06 -19.39,-5.73 -70.87,-8.52 -154.02,-8.52 -47.17,0 -77.72,2.65 -91.53,7.82 -13.67,5.16 -20.65,16.74 -20.65,34.6 0,17.99 9.63,29.58 28.61,34.73 19.11,4.89 59.29,6.42 120.54,4.47 136.59,-4.32 222.11,2.51 256.43,20.51 34.19,17.72 51.2,64.46 51.2,140.21 0,60 -17.16,99.2 -51.34,117.62 -34.18,18.42 -107,27.63 -218.48,27.63 -155.29,0 -251.28,-9.07 -287.97,-27.35 -36.55,-18.28 -54.96,-66.42 -54.96,-144.26l0 0 144.81 0 0 0c0,26.65 10.61,42.96 31.67,49.24 21.07,6.28 76.59,9.35 166.31,9.35 52.59,0 86.5,-2.5 101.85,-7.39 15.48,-4.88 23.15,-15.63 23.15,-32.23 0,-19.26 -10.18,-31.67 -30.41,-37.11 -20.51,-5.44 -63.48,-7.12 -129.06,-4.88 -134.21,4.04 -218.2,-2.79 -251.96,-20.52 -33.63,-17.44 -50.51,-63.34 -50.51,-137.84 0,-61.11 16.6,-100.87 49.94,-119.56 33.22,-18.7 103.95,-28.05 212.22,-28.05 151.09,0 244.43,8.93 280.01,26.79 35.57,17.72 53.3,64.46 53.3,139.8l0 0 -149.85 0zm240.81 328.98l0 -347.4 0 0 64.46 0 64.45 0 0 0 0 347.4 0 0 -64.45 0 -64.46 0zm-2.51 -493.06l134.77 0 0 97.11 -134.77 0 0 -97.11z"/>
   <path fill="#666636" fill-rule="nonzero" d="M5563.85 5902.75l-68.67 -238.79 0 0 34.99 0 35.18 0 0 0 44.68 169.72 0.21 0 0 0 64.79 -169.72 39.46 0 39.39 0 68.53 171.56 -0.06 0 0 0 41.76 -171.56 0 0 34.98 0 35.25 0 0 0 -66.49 238.79 -43.95 0 -44 0 -66.09 -162.6 0.07 0 0 0 -62.08 162.6 -44 0 -43.95 0zm408.66 0l0 -238.79 0 0 36.41 0 36.54 0 0 0 0 238.79 0 0 -36.35 0 -36.6 0zm131.01 0l0 -238.79 0 0 250.21 0 0 0 0 27.5 0 27.51 0 0 -177.27 0 0 0 0 46.46 0 0 167.08 0 0 27.5 0 27.5 0 0 -167.08 0 0 0 0 82.32 -36.33 0 -36.61 0zm291.63 0l0 -238.79 0 0 36.41 0 36.54 0 0 0 0 238.79 0 0 -36.34 0 -36.61 0zm313.7 0l0 -238.79 0 0 36.41 0 36.54 0 0 0 0 88.83 0 0 161.78 0 0 0 0 -88.83 0 0 36.4 0 36.54 0 0 0 0 238.79 0 0 -36.34 0 -36.6 0 0 0 0 -88.83 0 0 -161.78 0 0 0 0 88.83 0 0 -36.33 0 -36.62 0zm666.34 -88.15c0,41.02 -8.09,66.35 -24.18,76.07 -16.17,9.71 -58.34,14.52 -126.67,14.52 -68.52,0 -110.77,-4.81 -126.93,-14.52 -16.1,-9.72 -24.18,-35.05 -24.18,-76.07l0 -150.64 0 0 36.4 0 36.54 0 0 0 0 139.5c0,21.46 4.01,34.63 12.02,39.46 8.09,4.82 29.95,7.27 65.81,7.27 35.86,0 57.73,-2.45 65.82,-7.27 8.01,-4.83 12.02,-18 12.02,-39.46l0 -139.5 0 0 36.67 0 36.68 0 0 0 0 150.64zm55.9 88.15l0 -238.79 0 0 36.4 0 0 0 140.79 0c49.52,0 81.5,3.94 96.04,11.88 14.52,7.95 21.79,25.54 21.79,52.7 0,24.86 -7.27,40.96 -21.87,48.23 -4,2.03 -9.37,3.73 -16.16,5.16l0 0c10.67,1.9 18.47,4.21 23.51,6.99 14.86,7.61 22.27,24.31 22.27,50.26 0,22.41 -5.91,38.65 -17.8,48.63 -11.88,9.98 -31.17,14.94 -57.86,14.94l-190.71 0 0 0 -36.4 0zm72.94 -183.78l0 38.3 0 0 104.25 0c20.38,0 32.94,-0.95 37.69,-2.85 4.82,-1.9 7.21,-7 7.21,-15.28 0,-7.81 -2.31,-13.11 -6.87,-15.96 -4.62,-2.78 -13.31,-4.21 -26.01,-4.21l-116.27 0zm0 90.06l0 38.3 0 0 130.2 0c10.32,0 17.38,-1.29 21.11,-3.8 3.74,-2.58 5.58,-7.33 5.58,-14.47 0,-9.1 -2.52,-14.67 -7.61,-16.85 -5.03,-2.1 -18.27,-3.18 -39.66,-3.18l-109.62 0z"/>
   <path fill="#6699FF" d="M7950.51 9109.15c0,-81.98 -66.45,-148.45 -148.44,-148.45 -81.99,0 -148.44,66.47 -148.44,148.45 0,53.03 28.28,102.04 74.22,128.55 45.94,26.52 102.51,26.52 148.44,0 45.93,-26.51 74.22,-75.52 74.22,-128.55z"/>
   <path fill="red" d="M5575.41 9109.15c0,-81.98 -66.46,-148.45 -148.44,-148.45 -82,0 -148.45,66.47 -148.45,148.45 0,53.03 28.29,102.04 74.22,128.55 45.94,26.52 102.51,26.52 148.45,0 45.93,-26.51 74.22,-75.52 74.22,-128.55z"/>
   <path fill="#660000" d="M5575.41 9109.15c0,-81.98 -66.46,-148.45 -148.44,-148.45 -82,0 -148.45,66.47 -148.45,148.45 0,53.03 28.29,102.04 74.22,128.55 45.94,26.52 102.51,26.52 148.45,0 45.93,-26.51 74.22,-75.52 74.22,-128.55z"/>
   <path fill="#061E4C" d="M7950.51 9109.15c0,-81.98 -66.45,-148.45 -148.44,-148.45 -81.99,0 -148.44,66.47 -148.44,148.45 0,53.03 28.28,102.04 74.22,128.55 45.94,26.52 102.51,26.52 148.44,0 45.93,-26.51 74.22,-75.52 74.22,-128.55z"/>
   <path fill="none" stroke="black" stroke-width="26.45" stroke-linejoin="round" stroke-miterlimit="22.9256" d="M10359.41 7834.16l-390.06 1.01m-0.07 -2485.74l386.35 0"/>
   <path fill="none" stroke="black" stroke-width="26.45" stroke-linejoin="round" stroke-miterlimit="22.9256" d="M3259.87 7834.16l-390.06 1.01m-0.07 -2485.74l386.35 0"/>
  </g>
 </g>
</svg>
