<?xml version="1.0" encoding="UTF-8"?>
<!DOCTYPE svg PUBLIC "-//W3C//DTD SVG 1.1//EN" "http://www.w3.org/Graphics/SVG/1.1/DTD/svg11.dtd">
<!-- Creator: CorelDRAW -->
<svg xmlns="http://www.w3.org/2000/svg" xml:space="preserve" width="132.292mm" height="132.292mm" version="1.1" shape-rendering="geometricPrecision" text-rendering="geometricPrecision" image-rendering="optimizeQuality" fill-rule="evenodd" clip-rule="evenodd"
viewBox="0 0 13229.16 13229.16"
 xmlns:xlink="http://www.w3.org/1999/xlink"
 xmlns:xodm="http://www.corel.com/coreldraw/odm/2003">
 <g id="Katman_x0020_1">
  <metadata id="CorelCorpID_0Corel-Layer"/>
  <g id="_2083490134112">
   <path fill="#CECECE" d="M3447.22 8843.57c-2.48,-31.06 -4.96,-62.13 -7.37,-93.19 -2.41,-31.07 -4.76,-62.14 -7.06,-93.21 -2.3,-31.07 -4.55,-62.15 -6.74,-93.23 -2.2,-31.07 -4.34,-62.16 -6.43,-93.24 -2.09,-31.08 -4.13,-62.17 -6.11,-93.26 -1.98,-31.09 -3.91,-62.18 -5.8,-93.27 -1.87,-31.1 -3.7,-62.2 -5.48,-93.29 -1.77,-31.11 -3.5,-62.21 -5.16,-93.31 -1.67,-31.11 -3.29,-62.22 -4.86,-93.33 -1.56,-31.11 -3.07,-62.23 -4.53,-93.34 -1.46,-31.12 -2.86,-62.24 -4.22,-93.35 -1.36,-31.13 -2.66,-62.25 -3.91,-93.38 -1.24,-31.13 -2.44,-62.26 -3.59,-93.39 -1.14,-31.13 -2.23,-62.27 -3.27,-93.4 -1.04,-31.15 -2.03,-62.29 -2.96,-93.43 -0.93,-31.14 -1.82,-62.29 -2.65,-93.44 -0.82,-31.15 -1.6,-62.3 -2.32,-93.45 -0.73,-31.16 -1.4,-62.32 -2.02,-93.48 -2.78,-140.09 -4.5,-280.21 -5.16,-420.32 -0.65,-140.09 -0.24,-280.19 1.23,-420.27 1.48,-140.09 4.02,-280.16 7.62,-420.21 3.59,-140.08 8.26,-280.13 13.99,-420.14 5.73,-139.99 12.52,-279.94 20.37,-419.83 7.85,-139.85 16.76,-279.64 26.73,-419.36 9.97,-139.71 21.01,-279.35 33.1,-418.89 12.1,-139.58 25.25,-279.06 39.46,-418.44 6.33,-61.97 12.85,-123.92 19.59,-185.85 6.74,-61.92 13.68,-123.82 20.84,-185.69 7.15,-61.87 14.51,-123.7 22.09,-185.52 7.56,-61.81 15.35,-123.59 23.33,-185.35 7.99,-61.76 16.19,-123.49 24.59,-185.19 8.41,-61.71 17.02,-123.38 25.84,-185.03 8.82,-61.65 17.86,-123.26 27.09,-184.85 9.23,-61.6 18.65,-123.16 28.34,-184.69 9.69,-61.54 19.63,-123.03 29.59,-184.52 7.46,-32.76 14.93,-65.52 26.68,-96.79 11.73,-31.25 27.74,-61.01 46.46,-88.86 18.72,-27.84 40.16,-53.74 64.17,-77.03 24.02,-23.3 50.62,-43.97 79.07,-61.76 28.5,-17.83 58.85,-32.76 90.51,-43.74 37.58,-13.04 76.99,-20.5 116.52,-25.67 41.45,-5.43 83.03,-8.33 124.57,-11.78 40.71,-3.37 81.38,-7.28 122.08,-10.94 40.69,-3.66 81.4,-7.08 122.13,-10.36 11.68,-0.94 23.37,-1.87 83.02,-6.62 85.76,-6.69 123.57,-9.57 161.37,-12.34 40.75,-2.98 81.5,-5.84 122.27,-8.6 224.29,-15.2 448.79,-27.51 673.4,-36.84 200.55,-8.33 401.2,-14.29 601.89,-17.88 200.73,-3.59 401.5,-4.82 602.27,-3.69 270.34,1.52 540.66,7.31 810.83,17.43 270.16,10.12 540.15,24.57 809.85,43.14 38.51,2.66 77.01,5.4 115.5,8.26 27.93,2.08 55.86,4.22 83.78,6.37l95.21 7.52c17.31,1.39 34.61,2.77 51.91,4.19 38.47,3.13 76.92,6.4 115.37,9.82 38.44,3.42 76.89,7.01 115.31,10.34 38.42,3.34 76.83,6.42 115.25,10.87 38.27,4.42 76.55,10.19 113.32,21.35 32.06,9.73 62.97,23.56 92.13,40.34 29.09,16.74 56.42,36.41 81.34,58.8 24.88,22.37 47.36,47.45 67,74.59 19.63,27.15 36.43,56.35 49.74,87.06 13.32,30.73 23.15,62.98 30.26,95.7 7.13,32.82 11.52,66.12 16.48,99.32 4.96,33.2 10.49,66.29 15.8,99.43 5.31,33.14 10.4,66.31 15.45,99.5 46.04,303.25 87.8,607.17 124.3,911.73 36.49,304.55 67.73,609.73 93.93,915.35 26.19,305.51 47.35,611.45 63.44,917.67 16.08,306.29 27.09,612.87 32.91,919.53 5.82,306.64 6.44,613.36 2.34,920.03 -4.12,306.87 -12.97,613.71 -28.27,920.18 -15.32,306.5 -37.09,612.63 -58.87,918.77 -2.56,31.33 -5.12,62.65 -7.75,93.96 -2.63,31.32 -5.32,62.63 -8.07,93.93 -2.75,31.3 -5.54,62.59 -8.39,93.89 -2.85,31.28 -5.75,62.57 -8.71,93.85 -2.95,31.28 -5.96,62.54 -9.03,93.81 -3.06,31.27 -6.17,62.53 -9.34,93.78 -3.17,31.25 -6.39,62.5 -9.67,93.74 -3.27,31.24 -6.6,62.47 -9.98,93.7 -3.39,31.23 -6.81,62.45 -10.3,93.67 -3.49,31.21 -7.03,62.42 -10.62,93.63 -3.6,31.2 -7.25,62.4 -10.94,93.59 -3.71,31.19 -7.46,62.38 -11.26,93.56 -3.81,31.18 -7.67,62.35 -11.58,93.51 -3.91,31.17 -7.88,62.33 -11.9,93.49 -4.02,31.15 -8.09,62.3 -12.22,93.44 -4.12,31.15 -8.3,62.28 -12.53,93.41 -4.23,31.13 -8.51,62.25 -12.85,93.37 -4.34,31.12 -8.73,62.23 -13.17,93.33 -4.44,31.11 -8.94,62.21 -13.49,93.31 -4.56,31.09 -9.19,62.17 -13.81,93.25 -0.89,5.73 -1.78,11.46 -2.74,17.17 -0.95,5.72 -1.98,11.41 -3.05,17.11 -1.07,5.69 -2.19,11.37 -3.36,17.04 -1.18,5.67 -2.4,11.33 -3.68,16.98 -1.28,5.65 -2.61,11.29 -3.99,16.91 -1.39,5.63 -2.82,11.25 -4.31,16.86 -1.49,5.6 -3.03,11.21 -4.62,16.79 -1.6,5.59 -3.24,11.16 -4.94,16.72 -1.7,5.57 -3.45,11.13 -5.25,16.66 -8.15,25.05 -17.33,49.77 -27.54,74.06 -10.17,24.21 -21.36,47.99 -33.53,71.26 -12.23,23.4 -25.45,46.28 -39.61,68.56 -14.2,22.36 -29.35,44.12 -45.39,65.22 -32.09,42.21 -67.72,81.79 -106.46,118.05 -38.75,36.28 -80.6,69.23 -124.85,98.47 -22.12,14.62 -44.84,28.31 -68.11,41.02 -23.19,12.67 -46.92,24.36 -71.1,35.03 -24.05,10.61 -48.55,20.22 -73.41,28.77 -24.95,8.59 -50.26,16.13 -75.83,22.61 -10.18,2.57 -20.39,4.98 -30.64,7.22 -10.23,2.24 -20.49,4.3 -30.78,6.19 -10.28,1.89 -20.59,3.61 -30.92,5.16 -10.32,1.55 -20.68,2.95 -31.05,4.12 -10.39,1.18 -20.79,2.14 -31.2,3.09 -29.08,2.36 -58.17,4.73 -87.26,7.02 -29.08,2.3 -58.18,4.53 -87.27,6.72 -29.09,2.19 -58.19,4.33 -87.29,6.42 -29.11,2.1 -58.21,4.14 -87.31,6.13 -29.11,1.99 -58.23,3.94 -87.33,5.82 -29.12,1.9 -58.24,3.74 -87.36,5.53 -29.11,1.79 -58.23,3.53 -87.36,5.23 -29.13,1.69 -58.26,3.33 -87.39,4.92 -29.13,1.59 -58.26,3.14 -87.4,4.63 -29.15,1.5 -58.28,2.94 -87.43,4.33 -29.14,1.39 -58.29,2.74 -87.44,4.03 -29.15,1.29 -58.3,2.54 -87.45,3.73 -174.43,7.15 -348.93,12.5 -523.46,16.07 -174.54,3.57 -349.11,5.35 -523.68,5.34 -174.56,-0.01 -349.13,-1.8 -523.66,-5.38 -174.54,-3.59 -349.04,-8.96 -523.48,-16.11 -58.31,-2.39 -116.6,-4.98 -174.9,-7.77 -58.28,-2.8 -116.55,-5.79 -174.82,-8.98 -58.26,-3.19 -116.51,-6.57 -174.75,-10.16 -58.24,-3.6 -116.47,-7.39 -174.68,-11.37 -58.22,-3.98 -116.42,-8.14 -174.61,-12.56 -58.19,-4.41 -116.36,-9.08 -174.54,-13.76 -5.78,-0.5 -11.57,-1.01 -17.34,-1.58 -5.78,-0.58 -11.54,-1.22 -17.3,-1.91 -5.77,-0.69 -11.52,-1.43 -17.26,-2.23 -5.75,-0.79 -11.49,-1.65 -17.22,-2.55 -5.73,-0.9 -11.46,-1.86 -17.17,-2.87 -5.73,-1 -11.44,-2.07 -17.14,-3.18 -5.71,-1.12 -11.41,-2.28 -17.09,-3.5 -5.7,-1.23 -11.38,-2.51 -17.05,-3.83 -5.69,-1.33 -11.35,-2.71 -17.01,-4.14 -25.57,-6.48 -50.87,-14.02 -75.82,-22.6 -24.86,-8.57 -49.37,-18.17 -73.43,-28.79 -24.17,-10.67 -47.89,-22.36 -71.08,-35.03 -23.28,-12.71 -46.01,-26.41 -68.14,-41.03 -44.24,-29.24 -86.09,-62.21 -124.84,-98.48 -38.74,-36.27 -74.37,-75.85 -106.46,-118.06 -16.04,-21.09 -31.18,-42.85 -45.39,-65.2 -14.16,-22.3 -27.38,-45.18 -39.62,-68.58 -12.16,-23.27 -23.35,-47.05 -33.53,-71.26 -10.21,-24.29 -19.39,-49.01 -27.54,-74.07 -3.24,-9.96 -6.32,-19.97 -9.22,-30.03 -2.91,-10.03 -5.65,-20.12 -8.21,-30.25 -2.57,-10.1 -4.96,-20.26 -7.2,-30.44 -2.23,-10.19 -4.3,-20.4 -6.16,-30.66 -1.86,-10.26 -3.51,-20.56 -5.16,-30.86 -4.62,-31.09 -9.25,-62.17 -13.8,-93.26 -4.56,-31.1 -9.06,-62.19 -13.5,-93.3 -4.44,-31.1 -8.83,-62.22 -13.17,-93.34 -4.34,-31.11 -8.63,-62.24 -12.86,-93.37 -4.23,-31.13 -8.41,-62.27 -12.53,-93.41 -4.13,-31.14 -8.2,-62.28 -12.22,-93.44 -4.02,-31.16 -7.99,-62.32 -11.9,-93.49 -3.91,-31.16 -7.77,-62.34 -11.58,-93.51 -3.81,-31.19 -7.56,-62.37 -11.26,-93.56 -3.71,-31.19 -7.35,-62.39 -10.94,-93.59 -3.6,-31.21 -7.14,-62.42 -10.63,-93.63 -3.49,-31.22 -6.92,-62.45 -10.31,-93.67 -3.38,-31.23 -6.71,-62.47 -9.98,-93.71 -3.28,-31.24 -6.5,-62.49 -9.67,-93.74 -3.17,-31.25 -6.29,-62.51 -9.35,-93.78 -3.06,-31.27 -6.07,-62.53 -9.03,-93.81 -2.95,-31.28 -5.86,-62.56 -8.71,-93.86 -2.85,-31.29 -5.64,-62.58 -8.39,-93.88 -2.75,-31.3 -5.45,-62.62 -8.07,-93.93 -2.64,-31.32 -5.2,-62.64 -7.76,-93.96z"/>
   <path fill="#660000" d="M4418.18 9183.24c3.01,4.75 6.06,9.48 9.16,14.17 16.09,24.48 33.27,48.23 51.42,71.19 9.05,11.44 18.34,22.68 27.86,33.71 9.52,11.02 19.28,21.85 29.28,32.45 15,15.94 30.53,31.39 46.53,46.35 16.09,15.05 32.66,29.58 49.66,43.59 17.08,14.05 34.58,27.56 52.5,40.5 17.79,12.84 35.99,25.12 54.54,36.82 21.55,13.61 43.59,26.45 66.05,38.48 22.49,12.02 45.39,23.26 68.67,33.65 22.54,10.08 45.43,19.38 68.6,27.88 25.08,9.21 50.51,17.5 76.2,24.85 24.69,7.06 49.65,13.25 74.78,18.55 24.88,5.26 49.95,9.65 75.12,13.18 13.14,1.84 26.29,3.44 39.49,4.81 12.93,1.33 25.89,2.44 38.87,3.33 12.65,0.88 25.31,1.55 37.98,1.95 12.33,0.38 24.67,0.5 37.01,0.62 0.2,0 0.39,0.01 0.59,0.01l19.66 0c3.28,0 6.55,0 9.82,0.01 3.28,0 6.56,0.01 9.84,0 1.92,-0.01 3.85,-0.04 5.77,-0.04 2.64,-0.01 5.3,0.01 7.94,0.02 6.14,0.03 12.27,0.02 18.39,0.02 8.99,0 17.98,0 26.97,0.01 13.14,0.01 26.3,0.01 39.46,0.01 13.11,0 26.22,0 39.33,0 52.53,0 105.07,0.01 157.61,0.03 104.95,0 209.91,0.02 314.89,0.03 107.73,0 215.47,-0.01 323.2,0.01 101.99,0 203.99,0.02 305.98,0.03 101.96,0 203.92,-0.01 305.88,-0.01 107.71,0 215.43,0.01 323.13,0.01 105.03,0.01 210.05,0 315.07,0 52.56,-0.01 105.14,-0.01 157.7,-0.01 26.28,-0.01 52.56,-0.01 78.84,-0.01 13.14,0 26.28,0 39.43,-0.01 3.27,0 6.55,0 9.83,0 1.75,0 3.49,0 5.23,0.01 1.63,0.01 3.26,0.01 4.9,0.01 1.22,-0.01 2.46,-0.02 3.69,-0.04 1.34,-0.01 2.67,0 3.99,0 3.64,0 7.24,0.01 10.86,0.02l23.31 -0.01c6.18,-0.03 12.36,-0.07 18.54,-0.18 6.26,-0.11 12.52,-0.28 18.77,-0.51 6.34,-0.22 12.65,-0.49 18.97,-0.83 6.39,-0.33 12.76,-0.72 19.13,-1.17 6.43,-0.45 12.85,-0.94 19.27,-1.51 6.48,-0.57 12.95,-1.18 19.4,-1.87 6.53,-0.68 13.04,-1.42 19.53,-2.22 6.58,-0.8 13.14,-1.68 19.68,-2.59 25.08,-3.55 50.03,-7.96 74.8,-13.19 25.23,-5.35 50.26,-11.58 75.04,-18.67 12.92,-3.71 25.78,-7.65 38.55,-11.83 11.71,-3.83 23.36,-7.87 34.94,-12.09 8.36,-3.04 16.68,-6.19 24.97,-9.44 1.75,-0.71 3.5,-1.42 5.25,-2.14 10.49,-4.26 20.9,-8.73 31.24,-13.36 14.1,-6.32 28.06,-12.91 41.86,-19.84 19.67,-9.84 39.04,-20.3 58.06,-31.36 10.39,-6.05 20.68,-12.26 30.87,-18.64 5.27,-3.29 10.52,-6.65 15.72,-10.05 5.21,-3.38 10.39,-6.82 15.53,-10.31 5.15,-3.49 10.27,-7.02 15.35,-10.59 5.09,-3.57 10.13,-7.19 15.15,-10.85 5.02,-3.65 10,-7.36 14.94,-11.1 4.95,-3.76 9.86,-7.54 14.74,-11.37 4.88,-3.83 9.72,-7.7 14.53,-11.6 4.8,-3.91 9.57,-7.87 14.29,-11.86 4.73,-3.98 9.43,-8.01 14.07,-12.08 4.65,-4.07 9.27,-8.17 13.84,-12.31 4.56,-4.14 9.09,-8.33 13.6,-12.53 103,-96.6 185.81,-212.97 243.23,-341.95l151.77 24.45c13.62,299.13 334.91,518.57 573.36,645.41 12.47,6.64 25.15,13.23 37.95,19.83 -1.33,10.07 -2.43,20.19 -3.56,30.3 -1.12,10.11 -2.26,20.22 -3.41,30.33 -2.31,20.21 -4.66,40.44 -7.02,60.64 -4.74,40.41 -9.55,80.81 -14.47,121.22 -9.8,80.79 -19.95,161.53 -30.47,242.23 -10.54,80.71 -21.42,161.37 -32.69,241.98 -5.62,40.3 -11.35,80.59 -17.1,120.88 -2.87,20.13 -5.76,40.28 -8.65,60.42 -2.89,20.14 -5.77,40.27 -8.78,60.4 -2.85,19.07 -6.33,38 -10.44,56.79 -4.1,18.81 -8.85,37.52 -14.19,55.97 -10.69,36.9 -23.71,72.72 -39,107.51 -15.28,34.79 -32.85,68.55 -52.71,101.25 -9.93,16.35 -20.48,32.49 -31.54,48.22 -11.05,15.73 -22.58,31.01 -34.55,45.85 -23.94,29.68 -49.72,57.62 -77.28,83.83 -13.78,13.1 -28.03,25.76 -42.73,37.99 -14.69,12.23 -29.88,24.04 -45.47,35.33 -31.16,22.61 -63.56,42.94 -97.17,61.07 -33.61,18.13 -68.41,34.05 -104.45,47.7 -19.25,7.52 -38.57,14.63 -58.07,20.87 -19.5,6.23 -39.15,11.69 -58.95,16.46 -19.79,4.75 -39.74,8.78 -59.82,12.09 -20.09,3.3 -40.34,5.79 -60.71,7.7 -20.36,1.92 -40.81,3.42 -61.24,5.05 -20.43,1.61 -40.86,3.22 -61.29,4.8 -40.85,3.17 -81.73,6.2 -122.59,9.19 -163.51,11.89 -327.13,22.22 -490.82,30.94 -451.76,24.09 -904.09,36.12 -1356.5,36.1 -452.4,-0.02 -904.49,-12.1 -1356.26,-36.2 -163.64,-8.75 -327.22,-19.08 -490.66,-30.98 -40.87,-2.98 -81.73,-6.03 -122.57,-9.19 -20.43,-1.58 -40.85,-3.2 -61.27,-4.82 -20.42,-1.61 -40.87,-3.12 -61.23,-5.03 -20.36,-1.91 -40.61,-4.4 -60.71,-7.7 -20.09,-3.3 -40.04,-7.34 -59.86,-12.1 -19.82,-4.75 -39.49,-10.21 -59.02,-16.47 -19.53,-6.24 -38.88,-13.38 -58.17,-20.9 -36.01,-13.64 -70.91,-29.59 -104.72,-47.84 -16.92,-9.13 -33.57,-18.86 -49.78,-29.07 -16.21,-10.2 -32.01,-20.89 -47.41,-32.06 -30.8,-22.36 -59.98,-46.63 -87.57,-72.83 -13.79,-13.09 -27.17,-26.67 -40.15,-40.74 -12.99,-14.07 -25.6,-28.68 -37.64,-43.61 -24.1,-29.88 -46.02,-61.11 -65.84,-93.7 -9.9,-16.3 -19.28,-32.94 -28.11,-49.92 -8.84,-16.98 -17.17,-34.33 -24.89,-51.94 -15.44,-35.2 -28.42,-71.12 -38.99,-107.76 -10.58,-36.64 -18.76,-74 -24.45,-112.07 -3.01,-20.13 -5.89,-40.27 -8.78,-60.41 -2.89,-20.15 -5.78,-40.29 -8.65,-60.43 -5.76,-40.29 -11.48,-80.58 -17.11,-120.87 -11.27,-80.6 -22.15,-161.26 -32.68,-241.97 -10.52,-80.71 -20.7,-161.46 -30.5,-242.25 -4.9,-40.4 -9.72,-80.8 -14.46,-121.22 -2.36,-20.21 -4.7,-40.42 -7.02,-60.64 -1.15,-10.1 -2.29,-20.22 -3.42,-30.32 -1.12,-10.11 -2.23,-20.23 -3.55,-30.32 12.53,-6.58 24.94,-13.18 37.14,-19.81 116.14,-63.15 213.18,-129.72 293.31,-198.55 10.66,-9.17 21.05,-18.39 31.02,-27.66 16.68,-15.52 32.22,-31.22 47.79,-46.87 17.21,-17.3 34.48,-34.54 49.75,-52.06 9.75,-11.19 18.69,-22.51 26.97,-33.89 5.93,-8.14 11.53,-16.33 16.7,-24.56 5.15,-8.24 9.89,-16.51 14.81,-24.77 8.87,-14.88 18.38,-29.7 24.65,-44.81 3.49,-8.39 5.98,-16.87 8.78,-25.31 3.94,-11.84 8.53,-23.61 12.38,-35.44 4.96,-15.18 8.72,-30.47 11.79,-45.79 4.07,-20.38 6.91,-40.82 8.21,-61.34l-26.6 -50.81 153.44 6.03c0.06,-0.03 -1.33,-1.19 0,0 10.62,9.46 23.54,16.23 35.48,24.29 18.68,38.87 39.86,76.89 63.55,113.77z"/>
   <path fill="#D9D5D5" d="M8181.74 9717.07l-3134.3 0c-447.75,0 -671.64,-217.86 -895.52,-653.59 -223.87,-435.73 -447.75,-2396.54 -447.75,-3703.74 0,-1307.2 223.88,-3050.16 447.75,-3268.02 223.88,-217.87 2000.77,-226.16 2462.66,-217.87 461.9,8.3 2238.77,0 2462.67,217.87 223.89,217.86 447.75,1960.82 447.75,3268.02 0,1307.2 -223.86,3268.01 -447.75,3703.74 -223.9,435.73 -447.76,653.59 -895.51,653.59z"/>
   <path fill="#8F0000" d="M5323.09 9019.16c-0.77,-7.3 -0.39,-14.5 1.08,-21.63 1.47,-7.12 4,-13.99 7.36,-20.43 3.36,-6.45 7.55,-12.45 12.2,-17.96 4.64,-5.51 9.8,-10.59 15.3,-15.33 11.02,-9.48 22.99,-17.35 35.42,-24.43 12.43,-7.08 25.35,-13.34 38.56,-19.08 26.43,-11.51 53.46,-20.82 80.74,-29.11 27.27,-8.29 54.82,-15.49 82.54,-22.03 55.44,-13.05 111.55,-23.46 168.05,-32.42 56.49,-8.95 113.04,-16.34 169.62,-22.65 113.16,-12.63 226.45,-21.02 339.83,-26.57 113.4,-5.55 226.88,-8.17 340.45,-8.17 113.59,0.01 227.25,2.64 341.03,8.22 113.76,5.58 227.78,14.06 341.21,26.77 56.72,6.36 113.36,13.79 169.72,22.75 56.37,8.97 112.53,19.41 168.06,32.55 27.76,6.57 55.35,13.81 82.65,22.16 27.31,8.34 54.26,17.7 80.42,29.16 13.08,5.73 25.86,11.96 38.16,19.02 12.29,7.04 24.14,14.88 35.02,24.31 5.45,4.71 10.54,9.75 15.13,15.22 4.6,5.47 8.74,11.45 12.05,17.82 3.31,6.36 5.84,13.21 7.29,20.21 0.73,3.51 1.2,7.05 1.39,10.63 0.19,3.57 0.11,7.23 -0.25,10.79 -0.71,7.14 -2.5,14.11 -5.23,20.78 -2.74,6.69 -6.31,12.85 -10.52,18.65 -4.2,5.8 -9.04,11.19 -14.2,16.12 -5.13,4.93 -10.63,9.47 -16.36,13.72 -5.73,4.25 -11.73,8.23 -17.83,11.94 -6.1,3.71 -12.3,7.16 -18.58,10.43 -12.58,6.55 -25.46,12.35 -38.53,17.71 -26.15,10.7 -53.09,19.63 -80.34,27.62 -27.24,7.98 -54.63,14.93 -82.13,21.24 -54.97,12.61 -110.32,22.68 -165.87,31.35 -55.56,8.67 -111.33,15.88 -167.24,22.07 -55.92,6.18 -112,11.32 -168.2,15.64 -56.19,4.3 -112.54,7.78 -168.86,10.51 -112.65,5.49 -225.28,8.07 -337.9,8.07 -112.69,-0.01 -225.36,-2.61 -338.03,-8.09 -56.33,-2.75 -112.69,-6.23 -168.94,-10.56 -56.27,-4.33 -112.42,-9.49 -168.47,-15.7 -56.03,-6.21 -111.95,-13.46 -167.71,-22.19 -55.74,-8.73 -111.31,-18.89 -166.29,-31.57 -27.5,-6.35 -54.87,-13.34 -81.93,-21.32 -27.05,-7.98 -53.9,-16.94 -79.93,-27.67 -13.02,-5.37 -25.84,-11.19 -38.32,-17.75 -12.49,-6.55 -24.7,-13.85 -36,-22.31 -11.3,-8.45 -21.83,-18.19 -30.02,-29.53 -4.09,-5.66 -7.67,-11.84 -10.37,-18.42 -2.7,-6.58 -4.49,-13.42 -5.23,-20.54z"/>
   <g>
    <path fill="#8F0000" fill-rule="nonzero" d="M8576.81 4283.02l-3924.47 0 0 -125.34 3924.47 0 0 0 0 125.34zm376.94 251.28l-125.96 0 0 0 -0.33 -12.92 -0.98 -12.73 -1.6 -12.52 -2.22 -12.31 -2.82 -12.11 -3.39 -11.9 -3.96 -11.64 -4.51 -11.38 -5.04 -11.11 -5.58 -10.84 -6.07 -10.54 -6.57 -10.21 -7.04 -9.89 -7.48 -9.51 -7.94 -9.15 -8.36 -8.77 -8.75 -8.34 -9.16 -7.94 -9.53 -7.5 -9.85 -7.03 -10.18 -6.53 -10.54 -6.07 -10.81 -5.57 -11.08 -5.03 -11.35 -4.49 -11.61 -3.95 -11.85 -3.39 -12.08 -2.8 -12.27 -2.21 -12.47 -1.6 -12.69 -0.97 -12.87 -0.33 0 -125.34 19.31 0.49 19.09 1.47 18.87 2.4 18.57 3.35 18.24 4.24 17.89 5.11 17.53 5.95 17.13 6.79 16.72 7.59 16.25 8.35 15.76 9.09 15.3 9.83 14.77 10.53 14.21 11.18 13.66 11.84 13.09 12.48 12.46 13.07 11.84 13.65 11.2 14.23 10.5 14.75 9.81 15.27 9.09 15.76 8.34 16.22 7.58 16.69 6.77 17.1 5.94 17.48 5.11 17.86 4.22 18.19 3.34 18.53 2.4 18.82 1.46 19.05 0.49 19.26 0 0zm-125.96 783.8l0 -783.8 125.96 0 0 783.8 0 0 -125.96 0zm-250.98 376.62l0 -125.34 0 0 12.87 -0.33 12.69 -0.97 12.47 -1.6 12.27 -2.21 12.08 -2.8 11.85 -3.39 11.61 -3.95 11.35 -4.49 11.08 -5.03 10.81 -5.57 10.54 -6.07 10.18 -6.53 9.85 -7.03 9.53 -7.5 9.16 -7.94 8.75 -8.34 8.36 -8.77 7.94 -9.15 7.48 -9.51 7.04 -9.89 6.57 -10.21 6.07 -10.54 5.58 -10.84 5.04 -11.11 4.51 -11.38 3.96 -11.64 3.39 -11.9 2.82 -12.11 2.22 -12.31 1.6 -12.52 0.98 -12.73 0.33 -12.92 125.96 0 -0.49 19.26 -1.46 19.05 -2.4 18.82 -3.34 18.53 -4.22 18.19 -5.11 17.86 -5.94 17.48 -6.77 17.1 -7.58 16.69 -8.34 16.22 -9.09 15.76 -9.81 15.27 -10.5 14.75 -11.2 14.23 -11.84 13.65 -12.46 13.07 -13.09 12.48 -13.66 11.84 -14.21 11.18 -14.77 10.53 -15.3 9.83 -15.76 9.09 -16.25 8.35 -16.72 7.59 -17.13 6.79 -17.53 5.95 -17.89 5.11 -18.24 4.24 -18.57 3.35 -18.87 2.4 -19.09 1.47 -19.31 0.49 0 0zm-3924.47 -125.34l3924.47 0 0 125.34 -3924.47 0 0 0 0 -125.34zm-376.93 -251.28l125.96 0 0 0 0.33 12.92 0.98 12.73 1.6 12.52 2.22 12.31 2.82 12.11 3.39 11.9 3.96 11.64 4.51 11.38 5.04 11.11 5.58 10.84 6.08 10.55 6.55 10.2 7.04 9.88 7.49 9.52 7.94 9.15 8.36 8.77 8.76 8.35 9.15 7.94 9.51 7.48 9.86 7.03 10.19 6.54 10.54 6.07 10.81 5.57 11.08 5.03 11.35 4.5 11.6 3.94 11.86 3.39 12.07 2.8 12.27 2.21 12.47 1.6 12.69 0.97 12.87 0.33 0 125.34 -19.31 -0.49 -19.09 -1.47 -18.87 -2.4 -18.57 -3.35 -18.23 -4.24 -17.9 -5.11 -17.52 -5.96 -17.13 -6.78 -16.72 -7.59 -16.25 -8.35 -15.76 -9.09 -15.29 -9.82 -14.78 -10.53 -14.23 -11.2 -13.65 -11.84 -13.08 -12.47 -12.46 -13.07 -11.84 -13.65 -11.19 -14.22 -10.52 -14.76 -9.81 -15.28 -9.08 -15.75 -8.34 -16.22 -7.58 -16.69 -6.77 -17.1 -5.94 -17.48 -5.11 -17.86 -4.22 -18.19 -3.34 -18.53 -2.4 -18.82 -1.46 -19.05 -0.49 -19.26 0 0zm125.96 -783.8l0 783.8 -125.96 0 0 -783.8 0 0 125.96 0zm250.97 -376.62l0 125.34 0 0 -12.87 0.33 -12.69 0.97 -12.47 1.6 -12.27 2.21 -12.07 2.8 -11.86 3.39 -11.6 3.94 -11.35 4.5 -11.08 5.03 -10.81 5.57 -10.54 6.07 -10.19 6.54 -9.86 7.03 -9.51 7.48 -9.15 7.94 -8.76 8.35 -8.36 8.77 -7.94 9.15 -7.49 9.52 -7.04 9.88 -6.55 10.2 -6.08 10.55 -5.58 10.84 -5.04 11.11 -4.51 11.38 -3.96 11.64 -3.39 11.9 -2.82 12.11 -2.22 12.31 -1.6 12.52 -0.98 12.73 -0.33 12.92 -125.96 0 0.49 -19.26 1.46 -19.05 2.4 -18.82 3.34 -18.53 4.22 -18.19 5.11 -17.86 5.94 -17.48 6.77 -17.1 7.58 -16.69 8.34 -16.22 9.08 -15.75 9.81 -15.28 10.52 -14.76 11.19 -14.22 11.84 -13.65 12.46 -13.07 13.08 -12.47 13.65 -11.84 14.23 -11.2 14.78 -10.53 15.29 -9.82 15.76 -9.09 16.25 -8.35 16.72 -7.59 17.13 -6.78 17.52 -5.96 17.9 -5.11 18.23 -4.24 18.57 -3.35 18.87 -2.4 19.09 -1.47 19.31 -0.49 0 0z"/>
   </g>
   <path fill="#8F0000" fill-rule="nonzero" d="M4697.69 5352.98l0 -853.57 0 0 130.13 0 0 0 686.78 0c125.51,0 209.51,29.62 251.51,88.86 41.27,58.5 61.9,175.03 61.9,350.06l0 6.32c0.49,163.14 -22.82,271.89 -69.91,326.52 -47.34,54.62 -141.54,81.81 -282.58,81.81l-647.7 0 0 0 -130.13 0zm260.74 -218.49l0 0 456.64 0c62.15,0 102.93,-12.87 122.6,-38.84 19.66,-25.73 29.61,-79.14 29.61,-160.23 0,-88.61 -9.46,-147.12 -28.4,-175.27 -18.94,-28.17 -58.27,-42.25 -118.23,-42.25l-462.22 0 0 0 0 416.59zm1040.25 218.49l0 0 0 -853.57 0 0 946.79 0 0 0 0 98.33 0 98.31 0 0 -686.06 0 0 0 0 117.99 0 0 648.19 0 0 92.49 0 92.5 0 0 -648.19 0 0 0 0 157.31 0 0 686.06 0 0 0 0 98.32 0 98.32 0 0 -946.79 0zm1883.63 -572.44l0 0c0,-42.49 -16.99,-68.46 -50.98,-78.42 -33.74,-9.95 -123.33,-14.81 -268.01,-14.81 -82.06,0 -135.22,4.62 -159.26,13.6 -23.79,8.98 -35.93,29.13 -35.93,60.2 0,31.32 16.75,51.47 49.77,60.46 33.26,8.49 103.17,11.16 209.75,7.76 237.67,-7.52 386.48,4.37 446.2,35.69 59.48,30.83 89.1,112.16 89.1,243.98 0,104.39 -29.86,172.61 -89.34,204.65 -59.48,32.04 -186.2,48.07 -380.17,48.07 -270.2,0 -437.22,-15.78 -501.08,-47.58 -63.6,-31.8 -95.64,-115.56 -95.64,-251.02l0 0 251.99 0 0 0c0,46.36 18.45,74.77 55.11,85.69 36.65,10.93 133.28,16.27 289.38,16.27 91.52,0 150.51,-4.37 177.22,-12.87 26.94,-8.49 40.29,-27.19 40.29,-56.08 0,-33.5 -17.72,-55.1 -52.92,-64.57 -35.69,-9.47 -110.46,-12.38 -224.56,-8.5 -233.54,7.04 -379.68,-4.86 -438.43,-35.68 -58.51,-30.35 -87.89,-110.22 -87.89,-239.86 0,-106.33 28.9,-175.52 86.91,-208.05 57.78,-32.53 180.87,-48.8 369.25,-48.8 262.92,0 425.33,15.54 487.23,46.61 61.91,30.84 92.74,112.16 92.74,243.26l0 0 -260.73 0zm419.02 572.44l0 -604.49 0 0 112.15 0 112.16 0 0 0 0 604.49 0 0 -112.16 0 -112.15 0zm-4.38 -857.94l234.52 0 0 168.97 -234.52 0 0 -168.97z"/>
  </g>
 </g>
</svg>
